<svg width="20" height="20" viewBox="0 0 20 20" fill="none" xmlns="http://www.w3.org/2000/svg">
<g id="Icon" clip-path="url(#clip0_57_3052)">
<path id="Vector (Stroke)" fill-rule="evenodd" clip-rule="evenodd" d="M10 3.33341C6.31811 3.33341 3.33334 6.31818 3.33334 10.0001C3.33334 13.682 6.31811 16.6667 10 16.6667C13.6819 16.6667 16.6667 13.682 16.6667 10.0001C16.6667 6.31818 13.6819 3.33341 10 3.33341ZM1.66667 10.0001C1.66667 5.39771 5.39763 1.66675 10 1.66675C14.6024 1.66675 18.3333 5.39771 18.3333 10.0001C18.3333 14.6025 14.6024 18.3334 10 18.3334C5.39763 18.3334 1.66667 14.6025 1.66667 10.0001Z" fill="#56CDAD"/>
<path id="Vector (Stroke)_2" fill-rule="evenodd" clip-rule="evenodd" d="M13.0893 7.74408C13.4147 8.06951 13.4147 8.59715 13.0893 8.92259L9.75593 12.2559C9.43049 12.5814 8.90285 12.5814 8.57742 12.2559L6.91075 10.5893C6.58531 10.2638 6.58531 9.73618 6.91075 9.41074C7.23619 9.08531 7.76382 9.08531 8.08926 9.41074L9.16667 10.4882L11.9107 7.74408C12.2362 7.41864 12.7638 7.41864 13.0893 7.74408Z" fill="#56CDAD"/>
</g>
<defs>
<clipPath id="clip0_57_3052">
<rect width="20" height="20" fill="white"/>
</clipPath>
</defs>
</svg>
